<?xml version="1.0" encoding="UTF-8"?>
<svg id="Layer_1" xmlns="http://www.w3.org/2000/svg" version="1.1" viewBox="0 0 1200 1200">
  <!-- Generator: Adobe Illustrator 30.3.0, SVG Export Plug-In . SVG Version: 2.1.3 Build 182)  -->
  <defs>
    <style>
      .st0 {
        stroke-width: 8px;
      }

      .st0, .st1 {
        stroke: #000;
        stroke-linecap: round;
        stroke-linejoin: round;
      }

      .st0, .st1, .st2 {
        fill: none;
      }

      .st3 {
        fill: #1b1464;
      }

      .st1 {
        stroke-width: 11px;
      }

      .st2 {
        stroke: #f15a24;
        stroke-miterlimit: 10;
        stroke-width: 12px;
      }

      .st4 {
        fill: #fff;
      }

      .st5 {
        fill: #c1272d;
      }
    </style>
  </defs>
  <line class="st2" x1="387.93" y1="946.93" x2="387.93" y2="946.93"/>
  <line class="st2" x1="486.14" y1="643.36" x2="486.14" y2="643.36"/>
  <text/>
  <text/>
  <g>
    <g>
      <path class="st3" d="M1054.65,600c0,1.02,0,2.05-.02,3.07-1.64-151.61-204.55-274.22-454.63-274.22s-452.98,122.61-454.62,274.22c-.02-1.02-.02-2.05-.02-3.07,0-232.32,200.5-454.64,454.64-454.64s454.65,203.55,454.65,454.64Z"/>
      <path class="st5" d="M1054.47,612.57c-6.65,245.29-207.58,442.08-454.47,442.08s-447.81-196.79-454.46-442.08c6.65,148.94,207.58,268.44,454.46,268.44s447.82-119.5,454.47-268.44Z"/>
    </g>
    <g>
      <path class="st0" d="M1054.47,612.57c-6.65,245.29-207.58,442.08-454.47,442.08s-447.81-196.79-454.46-442.08"/>
      <path class="st0" d="M145.38,603.07c-.02-1.02-.02-2.05-.02-3.07,0-232.32,200.5-454.64,454.64-454.64s454.65,203.55,454.65,454.64c0,1.02,0,2.05-.02,3.07"/>
      <path class="st1" d="M1054.63,603.07c.02.62.02,1.24.02,1.86,0,2.55-.06,5.1-.18,7.64-6.65,148.94-207.58,268.44-454.47,268.44s-447.81-119.5-454.46-268.44c-.12-2.54-.18-5.09-.18-7.64,0-.62,0-1.24.02-1.86,1.64-151.61,204.55-274.22,454.62-274.22s452.99,122.61,454.63,274.22Z"/>
    </g>
  </g>
  <g>
    <path d="M981.06,612.92c1.67.2,3.98,4.43,4.78,7.77-4.55,36.23-13.15,61.86-31.2,62.15-8.17.17-13.44-8.71-15.56-21.53,5.01-10.47,9.05-24.21,11.88-40.03-.76-3.42-3.23-7.76-5.08-7.97-2.2,11.93-5.03,20.99-8.02,27.58.04-1.77.13-3.57.25-5.37.47-6.95,1.53-13.51,3.03-18.28,1.47-4.66,3.4-7.61,5.71-7.63q.22,0,.58.22c3.11-15.94,5.67-40.11,6.22-58.61,3.88,2.59,7.65,5.18,11.33,7.76,3.56,30.24,8.88,50.05,8.34,78.41-.1,4.29-.37,8.57-.79,12.63,3.63-8.64,6.05-20.88,8.53-37.1ZM959.61,637.07c.59-13.38-1.46-27.98-3.28-44.05-1.02,8.72-2.34,17.22-3.89,25.26.9,4.11,1.38,9.14,1.12,14.61-.33,7.07-1.77,13.22-3.77,17.55.62,3.6,1.91,5.57,3.67,5.52,2.97-.09,5.59-6.65,6.14-18.91Z"/>
    <path d="M945.89,613.31c1.85.21,4.31,4.55,5.08,7.97-2.82,15.82-6.86,29.56-11.88,40.03-1.04-6.1-1.43-13.11-1.22-20.42,2.98-6.59,5.82-15.64,8.02-27.58Z"/>
    <path d="M939.09,661.32c-6.7,14.05-15.17,22.2-23.79,22.37-9.95.14-14.56-9.87-14.83-28.39,3.82-9.25,7.26-20.58,9.96-33.46-.75-3.5-3.38-7.94-5.39-8.16-1.02,4.9-2.08,9.42-3.17,13.51,3.5-34.5,9.13-69.44,23.26-68.9,10.67.22,16.83,20.77,16.72,39.55,0,6.85-.83,13.52-2.31,18.71-1.67,5.87-4.16,9.81-7.06,9.86-4.31.08-7.12-10.31-6.99-23.43.05-4.68.41-9.13,1.12-12.86-3.81,2.51-7.66,19.02-8.93,37.68-1.15,16.76.64,27.52,7,27.37,3.91-.1,8.69-4.42,13.18-14.29-.22,7.31.18,14.32,1.22,20.42Z"/>
    <path d="M905.04,613.68c2.01.22,4.64,4.66,5.39,8.16-2.71,12.88-6.14,24.21-9.96,33.46-.13-6.68.24-14.48.97-23.27.13-1.6.27-3.19.43-4.81,0-.01,0-.02.01-.03,1.09-4.09,2.16-8.61,3.17-13.51Z"/>
    <path d="M901.86,627.22c-.15,1.61-.29,3.21-.43,4.81-.73,8.79-1.1,16.59-.97,23.27-7.48,18.12-16.25,28.31-23.58,28.45-6.57.08-8.27-7.48-6.94-20.8,5.36-10.33,10.38-24.28,14.02-40.81-.77-3.54-3.5-8.04-5.59-8.26-.14.65-.28,1.29-.42,1.92,2.88-18.71,4.37-37.62,4.55-55.94,5.19.08,10.33.16,15.41.25-.37,27.13-3.44,55.48-9.55,82.61-1.94,8.58-1.64,12.18.47,12.15,3.21-.08,8.23-9.85,13.02-27.64Z"/>
    <path d="M883.94,505.11c5.26.07,11.99,10.18,14.34,23.58,2.41,13.59-.38,24.25-5.39,24.14-4.97-.06-9.95-10.93-12.59-24.52-2.59-13.37-1.55-23.26,3.64-23.2Z"/>
    <path d="M878.37,613.88c2.1.22,4.83,4.72,5.59,8.26-3.64,16.52-8.66,30.47-14.02,40.81.78-8.07,2.61-18.3,4.97-30.07,1.14-5.66,2.15-11.36,3.04-17.09.13-.63.28-1.27.42-1.92Z"/>
    <path d="M877.95,615.8c-.88,5.72-1.89,11.43-3.04,17.09-2.36,11.77-4.19,21.99-4.97,30.07-7.09,13.64-14.64,21.13-20.66,21.24-11.02.4-4.9-25.92-.44-48.83,1.38-6.48,2.59-13.04,3.62-19.63,1.69-11.1,1.87-15.46-.28-18.37-.99-1.29-1.98-2.58-2.99-3.88-1.12,9.69-2.76,19.42-4.98,29.04-.8-3.59-3.68-8.17-5.88-8.39,2.08-9.7,3.74-19.72,4.73-30.85-2.52-5.82-4.34-13.34-5.24-22.37-.06-.55-.1-1.09-.15-1.63-1.18-14.16.98-24.12,6.06-24.03,3.93.07,7.81,5.53,10.34,12.52-.05,7.1-.32,14.33-.8,21.65.38.4.75.8,1.12,1.21,10.14,11.07,18.06,19.59,13.16,50.75-1.33,7.81-2.91,15.55-4.74,23.18-1.49,6.3-2.34,10.87-.61,10.84,2.81-.06,9.98-14.18,15.74-39.58Z"/>
    <path d="M838.35,614.12c2.21.23,5.08,4.8,5.88,8.39-2.17-.21-4.97-4.77-5.88-8.39Z"/>
    <path d="M838.35,614.12c.91,3.62,3.71,8.18,5.88,8.39-8.23,36.54-24.83,62.29-38.05,62.25-8.49.08-9.84-9.77-8.45-25.19,5.26-9.85,9.86-22.37,13.2-36.8-.85-3.63-3.84-8.25-6.12-8.48-.15.67-.3,1.33-.46,1.98,1.24-7.84,2.25-15.73,3.04-23.6-1.61,0-3.22,0-4.84,0,1.14-11.39,1.8-22.74,1.96-33.79,1.64.02,3.27.03,4.9.05.13-9.7-.11-19.17-.74-28.28,5.31-4.1,10.47-8.12,15.52-12.06,1.47,12.78,2.12,26.43,1.94,40.52,3.6.04,7.18.08,10.75.13-.09,10.97-.67,22.21-1.76,33.49-3.58,0-7.18-.01-10.8-.02-1.48,14.83-3.8,29.74-6.96,44.21-3.48,15.46-2.04,19.17.53,19.17,5.96,0,16.15-21.45,20.47-41.96Z"/>
    <path d="M804.8,614.29c2.28.23,5.27,4.85,6.12,8.48-3.34,14.43-7.94,26.95-13.2,36.8.9-9.86,2.88-22.02,5.13-34.56.53-2.91,1.02-5.83,1.49-8.75.15-.64.31-1.31.46-1.98Z"/>
    <path d="M804.34,616.27c-.46,2.93-.96,5.85-1.49,8.75-2.25,12.54-4.23,24.7-5.13,34.56-9.06,16.92-19.73,26.1-29.93,26.24-14.51.06-18.67-17.55-16.1-52.43,3.14-38.2,10.73-77.8,27.13-77.14,11.25.07,20.54,17.88,20.62,39.38.37,21.59-9.66,48.37-28.94,49.13.73,8.52,3.4,13.03,8.28,12.98,7.23-.15,18.1-11.32,25.55-41.46ZM783.88,603.52c.06-4.45-.9-8.66-3.33-8.66-4.22-.03-7.82,12.7-9.44,29.14,8.42-1.5,12.69-11.82,12.77-20.48Z"/>
    <path d="M751.77,517.93c3.41,47.93-3.82,111.83-18.88,160.01-1.29,4.08-1.78,7.77.04,7.75.63,0,1.64-.41,3.8-3.35.66,3.97,1.23,7.82,1.71,11.53-3.87,6.21-11.23,14.7-18.08,14.62-8.46-.44-9.99-10.53-.89-46.57,5.95-24.17,10.33-51.2,12.8-77.58-7.91,23.38-17.45,47.35-27.83,69.38-.38,0-.77,0-1.15,0-1.02-21.87-3.39-45.75-6.83-69.2-3.51,34.68-9.52,70.48-17.13,99.2-5.92.03-11.86.05-17.8.07,9.8-41.24,17.3-97.28,19.72-143.62-2-1.17-3.75-1.64-5.38-1.65-8.58-.07-12.06,14.98-11.66,34.21.25,11.19,1.91,21.31,4.79,32.38-4.55,9.31-9.23,18.6-13.95,27.69-5.69-17.4-8.62-37.88-8.87-56.6-.29-37.9,8.7-65.29,25.17-64.91,4.26.02,9.3,1.87,15.05,6.14,4.01.02,8.02.04,12.02.07,6,20.76,10.97,44.71,14.59,69.04,8.46-24.32,15.38-48.08,20.03-68.8,6.26.05,12.51.11,18.73.17Z"/>
    <path d="M621.03,614.72c2.47.25,5.91,5,7.06,8.73-7.77,40.55-17.6,62.59-28.73,62.51-6.01-.01-9.31-6.43-10.82-15.97-4.01,10.17-8.95,15.92-14.51,15.94-7.1-.08-13.07-7.51-16.23-23.3,3-10.01,5.77-23.32,8.4-39.2-1.23-3.73-4.73-8.49-7.2-8.74-1.11,6.03-2.18,11.47-3.19,16.27,1.24-38.68,13.81-75.94,27.82-75.49,5.58,0,10.02,6.24,12.66,18.46.67-5.4,1.34-10.76,2.01-16.03,6.08,0,12.16,0,18.23,0-3.31,28.89-7.09,60.17-10.7,88.54-.8,6.46-.9,11.07,1.03,11.08,3.34-.02,8.55-14.86,14.16-42.81ZM590.73,613.96c-.03-9.55-2.2-15.62-5.27-15.62-4.87-.04-10.71,21.35-10.39,38.43.16,9.52,2.14,14.88,5.23,14.9,4.9.11,10.44-19.97,10.43-37.71Z"/>
    <path d="M559.01,614.7c2.47.25,5.97,5.01,7.2,8.74-2.63,15.88-5.4,29.19-8.4,39.2-1.05-5.32-1.75-11.62-2-18.89-.14-4.2-.14-8.48,0-12.78,1.01-4.8,2.08-10.24,3.19-16.27Z"/>
    <path d="M555.81,643.76c.24,7.27.95,13.57,2,18.89-4.61,15.31-9.75,23.19-16.57,23.22-11.8.32-15.68-25.53-13.72-49.2.52-6.65,1.12-13.42,1.81-20.25,1.16-11.51,1.51-16.07-.96-19.08-1.11-1.34-2.22-2.68-3.32-4.02-1.43,10.06-2.88,20.15-4.35,30.05-1.29-3.72-4.8-8.47-7.24-8.72,1.64-9.99,3.37-20.36,5.14-31.87-2.43-6-3.78-13.73-3.32-22.99.78-15.37,6.43-26.25,12.11-26.28,4.28-.02,7,5.4,8.36,12.5-1.56,7.26-3.05,14.73-4.46,22.3.38.41.75.82,1.13,1.23,10.63,11.29,18.06,20.32,14.6,52.88-.82,8.12-1.55,16.14-2.18,23.94-.49,6.45-.31,11.06,1.61,11.07,2.64-.02,5.72-9.07,9.37-26.46-.15,4.3-.15,8.58,0,12.78Z"/>
    <path d="M513.45,614.64c2.44.25,5.95,5,7.24,8.72-2.45-.25-6-4.98-7.24-8.72Z"/>
    <path d="M513.45,614.64c1.24,3.74,4.8,8.47,7.24,8.72-6.05,40.4-12.88,63.05-29.29,62.88-10.74-.13-20.9-9.79-26.8-29.03,1.82-9.48,3.38-21.15,5.05-34.02-1.33-3.7-4.83-8.42-7.22-8.67-.69,4.37-1.45,8.81-2.28,13.06-1.23-36.44,12.79-72.06,28.97-71.79,11.66-.13,18.11,17.82,18.09,39.78-.24,22.08-6.32,49.15-25.72,49.54,2.45,8.59,6.5,13.17,11.5,13.21,7.97-.05,14.98-11.45,20.45-43.68ZM490.9,603.6c-.04-4.51-.99-8.77-3.51-8.77-4.34-.02-8.49,12.84-8.4,29.39,8.47-1.42,11.96-11.84,11.91-20.63Z"/>
    <path d="M462.43,614.52c2.39.25,5.89,4.97,7.22,8.67-1.68,12.87-3.24,24.53-5.05,34.02-2.05-6.77-3.52-14.74-4.16-23.79-.14-1.94-.23-3.89-.29-5.85.83-4.25,1.6-8.69,2.28-13.06Z"/>
    <path d="M463.88,558.35c-2.2,11.19-4.04,22.7-5.5,34.24-3.85,0-7.68,0-11.5.01-1.93,15.08-3.16,30.22-3.64,44.81-.42,15.57,2.76,19.31,5.31,19.39,4.84.07,8.48-13.14,11.6-29.23.06,1.96.15,3.91.29,5.85.64,9.05,2.11,17.02,4.16,23.79-3.43,17.83-7.76,28.11-16.65,28.07-8.21-.09-14.88-9.19-18.62-23.61,1.74-9.95,3.17-23.08,5-38.66-1.33-3.68-4.79-8.37-7.12-8.62-.11.72-.21,1.42-.32,2.11.58-7.92,1.37-15.91,2.38-23.88-1.65,0-3.3,0-4.95,0,1.44-11.46,3.33-22.89,5.65-34.03,1.67-.01,3.35-.03,5.03-.04,2.03-9.79,4.38-19.34,7.05-28.48,6.96-4.25,13.97-8.42,20.98-12.46-4.13,12.69-7.67,26.49-10.59,40.81,3.8-.03,7.61-.05,11.44-.08Z"/>
    <path d="M427.22,614.4c2.34.25,5.8,4.94,7.12,8.62-1.83,15.58-3.27,28.71-5,38.66-2.65-10.21-3.7-23.11-2.98-36.5.15-2.88.33-5.77.54-8.67.11-.69.21-1.39.32-2.11Z"/>
    <path d="M426.9,616.51c-.21,2.9-.39,5.79-.54,8.67-.72,13.38.33,26.29,2.98,36.5-2.63,15.26-6.11,23.32-12.77,23.29-11.59.16-18.81-26.02-18.05-49.15.14-7.57.51-15.26,1.11-23.02.81-10.53.67-18.67-2.81-18.66-2.46,0-4.32,4.18-5.99,9.08-2.77,27.87-2.6,55.39.62,79.35-5.51-.07-11-.15-16.46-.22-1.2-8.73-2-17.89-2.4-27.35,3.87-5.31,5.89-15.18,7.63-32.34-1.31-3.64-4.64-8.27-6.87-8.51-.08.57-.16,1.13-.25,1.68,1.24-18.9,3.9-38.18,7.95-56.76,5.55-.06,11.13-.12,16.76-.18-.73,3.35-1.41,6.72-2.05,10.11,4.09-8.49,8.04-12.55,12.23-12.6,10.6-.28,11.17,26.2,8.89,55.24-.96,11.48-1.45,22.85-1.45,33.85.03,6.37.67,10.95,2.49,10.98,3.22.01,5.16-13.92,8.97-39.97Z"/>
    <path d="M373.36,614.16c2.23.25,5.56,4.88,6.87,8.51-1.74,17.16-3.76,27.03-7.63,32.34-.54-12.64-.37-25.81.51-39.17.09-.55.17-1.1.25-1.68Z"/>
    <path d="M373.11,615.84c-.88,13.36-1.05,26.53-.51,39.17-2.2,3.07-4.97,4.6-8.35,5.04-2.41,14.89-7.07,24.13-15.8,24.03-9.11-.15-19.08-10.75-24.92-28.37,1.13-9.19,2.06-20.53,3.33-33.51-1.24-3.57-4.37-8.12-6.45-8.37-.69,5.26-1.3,10.06-1.85,14.36-2.25-34.94,12.56-71.01,28.39-71.05,12.41-.3,18.28,21.79,19.39,54.55.31,8.73.25,17.64-.03,25.67,3.44-3.78,5.28-11.23,6.8-21.54ZM349.68,610.88c-.74-14.01-3.77-17.4-6.06-17.39-4.96-.02-11.18,17.2-9.32,37.8,1.48,15.56,5.63,19.18,8.05,19.25,1.11.02,2.21-.65,3.15-2.02-1.47-3.73-2.57-8.41-3.06-13.36-1.34-13.21,2.15-24.32,7.25-24.29Z"/>
    <path d="M320.4,613.83c2.07.25,5.21,4.79,6.45,8.37-1.27,12.98-2.2,24.32-3.33,33.51-2.26-6.8-3.9-14.64-4.67-23.22-.13-1.43-.23-2.85-.3-4.3.54-4.3,1.15-9.11,1.85-14.36Z"/>
    <path d="M318.56,628.2c.07,1.44.17,2.87.3,4.3.76,8.58,2.4,16.42,4.67,23.22-2.13,17.86-5.34,27.82-12.26,27.74-11.06-.04-16.98-26.76-16.25-49.01.12-5.57.34-11.17.67-16.81.66-10.8.94-15.08-1.09-17.91-.96-1.34-1.91-2.68-2.86-4.01-3.22,24.49-5.22,54.93-5.78,85.07-2.47-2.58-4.88-5.19-7.24-7.82,1.3-32.36,4.2-62.51,7.98-87.11-1.81-5.61-2.79-12.61-2.16-21.42,1.03-14.61,6.44-25.53,11.34-25.65,3.68-.08,5.58,5.27,6.25,12.15-1.79,7.08-3.38,14.25-4.78,21.45.3.39.6.77.9,1.16,8.57,10.64,13.96,19.13,12.25,49.89-.3,6.91-.43,13.76-.38,20.53.07,6.23.68,10.77,2.34,10.81,2.4.03,3.95-9.29,6.11-26.59Z"/>
    <path d="M303.43,511.32c-2.78,12.01-8.21,25.67-17.99,25.91-3.55.09-6.46-1.41-9.09-3.8-2.32,6.77-4.55,14.96-6.32,25.3-.13.69-.25,1.38-.37,2.08,3.74-.08,7.52-.15,11.33-.23-1.94,10.71-3.49,21.54-4.67,32.36-3.74.01-7.43.02-11.08.03-1.44,13.38-2.39,26.74-2.95,39.93-1.31,54.46-7.27,71.37-20.24,71.68-14.13.09-23.26-23.56-22.84-51.4,0-10.08.63-19.23,2.28-29.74.2,0,.4-.01.6,0,6.28.12,11.67,7.33,11.4,15.71-.29,8.4-.44,17.34-.32,20.33.27,6.95,1.71,13.01,4.91,13.1,5.76.14,8.54-18.52,10.25-47.48.65-10.64,1.49-21.34,2.57-32.06-2.31,0-4.6.02-6.87.02.45-4.5.93-9,1.45-13.51.71-6.09,1.49-12.18,2.35-18.25,2.37-.06,4.76-.11,7.17-.16.07-.46.15-.91.22-1.37,2.1-13.5,5.17-27.1,9.43-38.66-2.18-1.72-4.52-2.97-7.17-2.91-8.6.21-15.3,12.07-16.19,32.62-.5,11.07.69,19.21,2.77,28.53-3.08,9.62-5.91,19.21-8.63,28.72-5.91-16.39-7.92-35.72-7.61-54.38.09-34.76,11.56-66.55,29.59-66.27,7.7.02,13.29,6.12,18.04,12.43,5.66-7.73,12.4-12.43,19.27-12.43,10.14.06,12.02,9.52,8.73,23.9ZM291.03,515.02c3.16-.07,3.91-2.46,4.19-3.75.74-3.45-1.06-3.62-1.74-3.61-1.77.03-4.36,1.77-7.36,5.72,1.54,1.05,3.16,1.67,4.92,1.64Z"/>
  </g>
  <text/>
  <g>
    <path class="st4" d="M424.65,262.21c-3.07,3.81-7.22,7.24-12.49,10.44-4.8,2.92-9.69,5.11-14.8,6.58-5.11,1.47-10.18,2.2-15.31,2.18-5.12-.02-10.14-.82-15.07-2.44-4.94-1.62-9.46-4.1-13.52-7.55-4.15-3.52-7.08-7.41-8.61-11.71-1.54-4.3-1.79-8.75-.65-13.33,1.14-4.57,3.57-9.12,7.32-13.54,3.75-4.42,8.65-8.47,14.64-12.03,5.54-3.3,11.65-5.81,18.18-7.49,6.53-1.68,12.49-2.06,17.75-1.25-2.28,4.98-4.37,9.96-6.28,14.95-2.99-.65-6.23-.58-9.67.24-3.44.82-6.63,2.1-9.53,3.82-3.18,1.89-5.71,4.04-7.58,6.42-1.86,2.38-3.04,4.82-3.55,7.3-.5,2.48-.33,4.92.49,7.32.82,2.4,2.32,4.62,4.45,6.68,2.18,2.11,4.63,3.71,7.33,4.85,2.71,1.13,5.48,1.79,8.33,2,2.85.2,5.72-.06,8.65-.77,2.92-.71,5.72-1.88,8.44-3.52,3.15-1.9,5.53-3.97,7.17-6.28,1.63-2.31,2.61-4.62,2.91-6.97,6.01.6,11.91,1.33,17.72,2.2-1.15,4.16-3.27,8.1-6.34,11.9Z"/>
    <path class="st4" d="M506.24,199.99c1.51,4.62,1.77,9.1.92,13.42-.85,4.32-2.63,8.29-5.27,11.93-2.64,3.65-6.07,6.88-10.3,9.78-4.23,2.9-9.05,5.26-14.56,7.17-5.51,1.92-10.91,3.1-16.33,3.55-5.42.45-10.58.19-15.57-.81-4.99-1-9.64-2.74-13.97-5.28-4.33-2.53-8.02-5.84-10.96-9.98-2.98-4.19-4.67-8.46-4.9-12.86-.24-4.39.81-8.69,3.22-12.84,2.41-4.15,6.06-8.07,10.97-11.66,4.9-3.58,10.85-6.62,17.74-8.99,6.89-2.38,13.69-3.74,20.24-4.11,6.56-.37,12.5.23,17.76,1.73,5.26,1.5,9.7,3.89,13.33,7.09,3.63,3.21,6.15,7.18,7.68,11.85ZM485.14,205.36c-1.02-2.48-2.54-4.64-4.62-6.46-2.07-1.82-4.5-3.19-7.27-4.08-2.77-.9-5.87-1.32-9.28-1.24-3.41.08-6.92.73-10.5,1.97-3.58,1.24-6.59,2.84-9.01,4.77-2.42,1.93-4.24,4.05-5.45,6.33-1.21,2.28-1.73,4.66-1.57,7.15.15,2.48.97,4.89,2.4,7.24,1.49,2.45,3.41,4.48,5.71,6.12,2.3,1.64,4.81,2.83,7.51,3.6,2.71.77,5.57,1.09,8.6.99,3.03-.1,6.09-.7,9.23-1.79,3.14-1.09,5.8-2.48,8.02-4.2,2.21-1.72,3.96-3.64,5.24-5.78,1.28-2.14,2.03-4.46,2.24-6.96.21-2.5-.2-5.05-1.26-7.65Z"/>
    <path class="st4" d="M527.64,227c-5.39-19.7-10.88-39.37-16.42-59.02,7.4-1.44,14.83-2.7,22.29-3.78,3.27,15.71,6.53,31.42,9.74,47.15,10.15-1.47,20.36-2.54,30.6-3.23.4,4.24.8,8.48,1.2,12.72-15.93,1.07-31.78,3.13-47.41,6.16Z"/>
    <path class="st4" d="M583.63,220.36c-1.27-20.18-2.55-40.37-3.83-60.55,7.52-.34,15.06-.5,22.59-.48-.08,15.96-.16,31.92-.23,47.88,10.26.03,20.53.45,30.75,1.26-.47,4.23-.95,8.47-1.42,12.7-15.91-1.26-31.91-1.53-47.86-.82Z"/>
    <path class="st4" d="M640.04,221.95c2.86-20.07,5.79-40.13,8.75-60.18,20.72,2.12,41.3,5.62,61.53,10.47-1.38,3.94-2.76,7.88-4.14,11.82-12.71-3.04-25.56-5.54-38.51-7.47-.81,3.76-1.61,7.53-2.42,11.29,11.79,1.75,23.51,3.99,35.09,6.71-1.28,3.76-2.55,7.52-3.81,11.28-11.13-2.61-22.39-4.76-33.74-6.45-.88,4.13-1.75,8.26-2.62,12.39,12.15,1.8,24.21,4.17,36.09,7.08-1.39,4-2.78,8-4.17,12-17.06-4.18-34.48-7.18-52.06-8.96Z"/>
    <path class="st4" d="M754.15,252.25c-4.99-1.14-10.1-2.77-15.43-4.88-5.53-2.18-10.3-4.76-14.4-7.84-4.1-3.07-7.37-6.43-9.82-10.15-2.45-3.72-4.02-7.7-4.66-12-.63-4.29-.13-8.73,1.64-13.29,1.79-4.61,4.56-8.49,8.42-11.56,3.86-3.07,8.49-5.3,13.9-6.61,5.4-1.3,11.37-1.69,17.83-1.09,6.45.6,13.06,2.18,19.64,4.76,6.83,2.67,12.71,5.96,17.53,9.76,4.83,3.8,8.14,7.63,10,11.39-6.32,1-12.52,2.14-18.61,3.4-.9-2.28-2.6-4.58-5.14-6.84-2.54-2.27-5.85-4.22-9.9-5.81-3.5-1.38-7.01-2.18-10.45-2.41-3.44-.23-6.67.06-9.63.86-2.97.8-5.57,2.08-7.8,3.83-2.23,1.75-3.93,3.91-5.13,6.46-1.23,2.6-1.84,5.16-1.86,7.67-.02,2.51.58,4.87,1.76,7.1,1.18,2.23,2.95,4.27,5.31,6.17,2.36,1.89,5.29,3.52,8.83,4.93,2.04.81,4.04,1.49,6.01,2.02,1.96.53,3.87.88,5.74,1.05,2.05-3.27,4.11-6.53,6.17-9.79-4.73-2.06-9.52-4.02-14.35-5.89,2.01-3.57,4.03-7.13,6.06-10.69,10.89,4.21,21.56,8.88,31.95,13.98-6.7,9.18-13.31,18.39-19.82,27.64-4.23-.3-8.82-1.04-13.8-2.17Z"/>
    <path class="st4" d="M778.64,264.36c13.25-16.99,26.89-33.83,40.86-50.53,17.93,9.74,34.98,20.7,50.76,32.82-3.55,2.98-7.09,5.96-10.6,8.96-9.88-7.62-20.28-14.76-31.09-21.41-2.85,3.05-5.69,6.1-8.51,9.16,9.82,6.06,19.28,12.54,28.3,19.43-3.28,2.88-6.54,5.77-9.78,8.67-8.65-6.63-17.71-12.87-27.13-18.7-3.06,3.37-6.1,6.75-9.13,10.13,10.06,6.25,19.7,12.99,28.83,20.21-3.45,3.07-6.88,6.16-10.28,9.25-13.07-10.38-27.25-19.74-42.24-28Z"/>
  </g>
  <text/>
  <g>
    <path class="st4" d="M422.29,1007.98c-1.2-9.01-1.96-17.98-2.31-26.85-12.06-5.36-23.91-11.29-35.47-17.69.39,9.88,1.27,19.83,2.68,29.82-7.11-3.27-14.13-6.67-21.04-10.17-3.59-25.61-3.81-51.15-1.12-76.06,6.73,5.47,13.63,10.72,20.68,15.69-.84,8.69-1.32,17.49-1.4,26.36,11.54,6.96,23.39,13.38,35.47,19.16.04-7.96.42-15.84,1.1-23.61,7.45,4.06,14.99,7.82,22.6,11.28-1.65,19.44-1.36,39.56,1.15,59.95-7.5-2.45-14.95-5.08-22.33-7.88Z"/>
    <path class="st4" d="M563.16,1012.96c.02,4.12-1.26,7.78-3.84,10.97-2.59,3.19-6.18,5.79-10.78,7.75-4.6,1.96-10.07,3.22-16.42,3.7-6.36.48-13.26.1-20.74-1.23-7.48-1.33-14.44-3.43-20.9-6.28-6.46-2.85-12.12-6.27-16.96-10.2-4.84-3.93-8.7-8.25-11.51-12.89-2.82-4.63-4.29-9.31-4.35-13.92-.07-4.66,1.29-8.38,4.01-11.12,2.72-2.75,6.51-4.54,11.32-5.47,4.81-.94,10.48-1.04,16.97-.48,6.49.56,13.51,1.79,21.05,3.56,7.54,1.76,14.48,3.8,20.87,6.21,6.38,2.4,11.87,5.02,16.49,7.97,4.62,2.95,8.23,6.19,10.85,9.8,2.61,3.61,3.93,7.47,3.95,11.64ZM537.99,1010.17c0-2.28-.69-4.51-2.05-6.7-1.36-2.19-3.23-4.18-5.62-6-2.39-1.82-5.29-3.46-8.69-4.94-3.4-1.48-7.15-2.67-11.26-3.59-4.11-.92-7.87-1.41-11.27-1.42-3.41-.01-6.36.36-8.87,1.15-2.5.8-4.43,2.04-5.78,3.75-1.35,1.71-2.01,3.78-1.99,6.2.02,2.52.76,5.04,2.18,7.54,1.43,2.49,3.38,4.8,5.86,6.9,2.47,2.1,5.41,3.96,8.82,5.54,3.4,1.59,7.15,2.77,11.24,3.56,4.09.78,7.8,1.01,11.14.74,3.34-.27,6.22-.96,8.64-2.04,2.42-1.08,4.3-2.54,5.64-4.37,1.34-1.82,2-3.93,1.99-6.31Z"/>
    <path class="st4" d="M680.06,1007.01c.07,4.2-1.26,8.31-3.93,12.23-2.68,3.93-6.4,7.48-11.14,10.59-4.74,3.11-10.35,5.68-16.82,7.66-6.47,1.97-13.46,3.19-21,3.61-7.54.42-14.51-.01-20.93-1.24-6.43-1.22-12.02-3.13-16.76-5.63-4.75-2.51-8.49-5.55-11.2-9.06-2.71-3.51-4.09-7.35-4.12-11.45-.03-4.15,1.3-7.82,3.96-11.03,2.66-3.21,6.34-5.88,11.02-8.1,4.68-2.22,10.2-3.96,16.55-5.32,6.35-1.36,13.25-2.25,20.74-2.76,7.49-.51,14.46-.56,20.95-.06,6.49.5,12.14,1.48,16.95,3.09,4.81,1.6,8.62,3.82,11.41,6.73,2.78,2.91,4.23,6.49,4.3,10.74ZM654.97,1010.93c-.04-2.27-.77-4.29-2.19-6.09-1.42-1.79-3.37-3.24-5.83-4.37-2.47-1.12-5.42-1.91-8.86-2.4-3.44-.49-7.21-.58-11.31-.31-4.1.27-7.82.86-11.18,1.79-3.36.93-6.26,2.1-8.71,3.53-2.45,1.43-4.33,3.11-5.64,5.06-1.31,1.95-1.95,4.04-1.93,6.28.02,2.33.73,4.49,2.13,6.46,1.4,1.96,3.31,3.64,5.76,5.01,2.44,1.37,5.36,2.41,8.75,3.1,3.39.68,7.14.92,11.25.68,4.11-.24,7.86-.92,11.24-2.01,3.38-1.09,6.31-2.49,8.78-4.17,2.47-1.68,4.39-3.61,5.75-5.77,1.36-2.16,2.02-4.43,1.99-6.79Z"/>
    <path class="st4" d="M767.64,969.09c.14,3.51-.81,6.95-2.82,10.21-2.01,3.27-4.75,6.33-8.22,9.12-3.47,2.79-7.49,5.32-12.05,7.55-4.56,2.23-9.32,4.11-14.26,5.62-3.82,1.17-7.65,2.29-11.49,3.35-.07,7-.36,14.05-.89,21.13-7.63,1.89-15.29,3.59-22.98,5.11,1.04-18.18.76-36.19-.74-53.87,11.76-2.95,23.51-6.5,35.18-10.73,5.21-1.88,10.09-3.48,14.66-4.72,4.56-1.24,8.57-1.96,12.02-2.06,3.45-.1,6.21.53,8.27,1.97,2.06,1.43,3.18,3.88,3.32,7.33ZM744.86,978.65c-.06-1.35-.56-2.28-1.5-2.8-.94-.52-2.19-.73-3.74-.64-1.55.09-3.3.41-5.24.94-1.94.53-3.95,1.16-6.02,1.86-3.38,1.15-6.77,2.24-10.16,3.29.27,4.3.45,8.63.55,12.98,3.26-.95,6.51-1.94,9.76-2.97,2.16-.69,4.23-1.47,6.21-2.35,1.97-.88,3.74-1.87,5.3-2.96,1.56-1.09,2.77-2.26,3.64-3.48.87-1.22,1.28-2.51,1.22-3.86Z"/>
    <path class="st4" d="M828.22,931.25c-1.89-.66-4.33-.51-7.3.4-2.98.91-5.84,2.28-8.58,4.07-1.41.92-2.84,1.95-4.29,3.07-1.45,1.12-2.75,2.31-3.89,3.56-1.14,1.26-2.09,2.53-2.85,3.85-.76,1.31-1.1,2.61-1.03,3.91.05,1.11.41,1.86,1.08,2.24.66.38,1.62.5,2.86.36,1.24-.15,2.71-.47,4.41-.98,1.69-.51,3.59-1.14,5.69-1.88,3.02-1.04,6.14-2.08,9.36-3.13,3.22-1.05,6.13-1.6,8.73-1.61,2.6-.01,4.74.7,6.39,2.14,1.65,1.45,2.43,4.11,2.27,7.95-.18,4.41-1.33,8.78-3.39,13-2.06,4.22-4.76,8.17-8.06,11.82-3.3,3.65-7.03,6.91-11.17,9.81-4.15,2.9-8.39,5.3-12.73,7.25-6.34,2.85-12.44,4.64-18.31,5.5-5.88.86-10.73.58-14.57-.72,5.14-5.26,10.21-10.71,15.21-16.37,2.14.94,4.97,1.25,8.5.92,3.52-.33,7.04-1.34,10.57-3.06,1.59-.78,3.15-1.68,4.68-2.7,1.52-1.02,2.87-2.12,4.03-3.3,1.16-1.18,2.11-2.45,2.84-3.81.73-1.36,1.13-2.75,1.2-4.16.07-1.35-.3-2.25-1.09-2.73-.79-.47-1.94-.66-3.46-.57-1.52.09-3.42.47-5.71,1.1-2.3.64-4.92,1.39-7.88,2.24-2.87.81-5.7,1.45-8.48,1.93-2.78.48-5.27.54-7.48.2-2.21-.33-4.01-1.17-5.39-2.48-1.39-1.32-2.13-3.36-2.26-6.15-.15-3.42.7-6.85,2.61-10.39,1.9-3.54,4.44-7.03,7.63-10.57,3.19-3.53,6.81-6.99,10.85-10.4,4.04-3.41,8.11-6.6,12.22-9.52,4.93-3.5,9.98-6.53,15.14-8.95,5.15-2.42,9.7-3.68,13.67-3.61-3.81,7.54-7.83,14.8-12,21.79Z"/>
  </g>
</svg>